G04 #@! TF.GenerationSoftware,KiCad,Pcbnew,(5.1.7-0-10_14)*
G04 #@! TF.CreationDate,2020-12-22T12:26:46-08:00*
G04 #@! TF.ProjectId,OPL3_breakout,4f504c33-5f62-4726-9561-6b6f75742e6b,1*
G04 #@! TF.SameCoordinates,Original*
G04 #@! TF.FileFunction,Copper,L4,Bot*
G04 #@! TF.FilePolarity,Positive*
%FSLAX46Y46*%
G04 Gerber Fmt 4.6, Leading zero omitted, Abs format (unit mm)*
G04 Created by KiCad (PCBNEW (5.1.7-0-10_14)) date 2020-12-22 12:26:46*
%MOMM*%
%LPD*%
G01*
G04 APERTURE LIST*
G04 #@! TA.AperFunction,ComponentPad*
%ADD10C,2.000000*%
G04 #@! TD*
G04 #@! TA.AperFunction,ComponentPad*
%ADD11O,1.600000X1.600000*%
G04 #@! TD*
G04 #@! TA.AperFunction,ComponentPad*
%ADD12C,1.600000*%
G04 #@! TD*
G04 #@! TA.AperFunction,ComponentPad*
%ADD13O,1.700000X1.700000*%
G04 #@! TD*
G04 #@! TA.AperFunction,ComponentPad*
%ADD14R,1.700000X1.700000*%
G04 #@! TD*
G04 #@! TA.AperFunction,ViaPad*
%ADD15C,0.600000*%
G04 #@! TD*
G04 #@! TA.AperFunction,Conductor*
%ADD16C,0.400000*%
G04 #@! TD*
G04 #@! TA.AperFunction,Conductor*
%ADD17C,0.127000*%
G04 #@! TD*
G04 APERTURE END LIST*
D10*
X150500000Y-105500000D03*
X154000000Y-105500000D03*
X133000000Y-107000000D03*
X177500000Y-94000000D03*
X160000000Y-94000000D03*
X163500000Y-94000000D03*
D11*
X132800000Y-101220000D03*
D12*
X132800000Y-93600000D03*
D13*
X173240000Y-86400000D03*
D14*
X175780000Y-86400000D03*
D13*
X137680000Y-109200000D03*
D14*
X140220000Y-109200000D03*
D13*
X168160000Y-109200000D03*
X165620000Y-109200000D03*
X163080000Y-109200000D03*
X160540000Y-109200000D03*
X158000000Y-109200000D03*
X155460000Y-109200000D03*
X152920000Y-109200000D03*
X150380000Y-109200000D03*
X147840000Y-109200000D03*
D14*
X145300000Y-109200000D03*
D13*
X168160000Y-86400000D03*
X165620000Y-86400000D03*
X163080000Y-86400000D03*
X160540000Y-86400000D03*
X158000000Y-86400000D03*
X155460000Y-86400000D03*
X152920000Y-86400000D03*
X150380000Y-86400000D03*
X147840000Y-86400000D03*
D14*
X145300000Y-86400000D03*
D15*
X147800000Y-90400000D03*
X147400000Y-97238000D03*
X147600000Y-98600000D03*
X148600000Y-99200000D03*
X138400000Y-103400000D03*
X138600000Y-102400000D03*
X138100000Y-99100000D03*
X172200000Y-93600000D03*
X172400000Y-96200000D03*
X137500000Y-101000000D03*
D16*
X148121962Y-90400000D02*
X147800000Y-90400000D01*
X151557001Y-86964961D02*
X148121962Y-90400000D01*
X151557001Y-86021037D02*
X151557001Y-86964961D01*
X152882049Y-84695989D02*
X151557001Y-86021037D01*
X163915989Y-84695989D02*
X152882049Y-84695989D01*
X165620000Y-86400000D02*
X163915989Y-84695989D01*
X152920000Y-91718000D02*
X152920000Y-86400000D01*
X147400000Y-97238000D02*
X152920000Y-91718000D01*
X155460000Y-90800000D02*
X155460000Y-86400000D01*
X147600000Y-98600000D02*
X155460000Y-90800000D01*
X158000000Y-89600000D02*
X158000000Y-86400000D01*
X158000000Y-89800000D02*
X158000000Y-89600000D01*
X148600000Y-99200000D02*
X158000000Y-89800000D01*
X164257001Y-85835039D02*
X163644961Y-85222999D01*
X161717001Y-85222999D02*
X160540000Y-86400000D01*
X164257001Y-86964961D02*
X164257001Y-85835039D01*
X163644961Y-85222999D02*
X161717001Y-85222999D01*
X147821962Y-103400000D02*
X164257001Y-86964961D01*
X138400000Y-103400000D02*
X147821962Y-103400000D01*
X147080000Y-102400000D02*
X163080000Y-86400000D01*
X138600000Y-102400000D02*
X147080000Y-102400000D01*
X135980000Y-101220000D02*
X132800000Y-101220000D01*
X138100000Y-99100000D02*
X135980000Y-101220000D01*
X171060000Y-93600000D02*
X155460000Y-109200000D01*
X172200000Y-93600000D02*
X171060000Y-93600000D01*
X171000000Y-96200000D02*
X158000000Y-109200000D01*
X172400000Y-96200000D02*
X171000000Y-96200000D01*
D17*
X137500000Y-102500000D02*
X133000000Y-107000000D01*
X137500000Y-101000000D02*
X137500000Y-102500000D01*
M02*
