M48
; DRILL file {KiCad (5.1.7-0-10_14)} date Tuesday, December 22, 2020 at 12:26:48 PM
; FORMAT={-:-/ absolute / inch / decimal}
; #@! TF.CreationDate,2020-12-22T12:26:48-08:00
; #@! TF.GenerationSoftware,Kicad,Pcbnew,(5.1.7-0-10_14)
FMAT,2
INCH
T1C0.0118
T2C0.0315
T3C0.0394
%
G90
G05
T1
X5.4134Y-3.9764
X5.437Y-3.9016
X5.4488Y-4.0709
X5.4567Y-4.0315
X5.8031Y-3.8283
X5.811Y-3.8819
X5.8189Y-3.5591
X5.8504Y-3.9055
X6.7795Y-3.685
X6.7874Y-3.7874
T2
X5.2283Y-3.685
X5.2283Y-3.985
T3
X5.2362Y-4.2126
X5.7205Y-4.2992
X5.8205Y-4.2992
X5.9205Y-4.2992
X6.0205Y-4.2992
X6.1205Y-4.2992
X6.2205Y-4.2992
X6.3205Y-4.2992
X6.4205Y-4.2992
X6.5205Y-4.2992
X6.6205Y-4.2992
X6.8205Y-3.4016
X6.9205Y-3.4016
X5.7205Y-3.4016
X5.8205Y-3.4016
X5.9205Y-3.4016
X6.0205Y-3.4016
X6.1205Y-3.4016
X6.2205Y-3.4016
X6.3205Y-3.4016
X6.4205Y-3.4016
X6.5205Y-3.4016
X6.6205Y-3.4016
X6.9882Y-3.7008
X6.437Y-3.7008
X6.2992Y-3.7008
X5.4205Y-4.2992
X5.5205Y-4.2992
X6.063Y-4.1535
X5.9252Y-4.1535
T0
M30
