G04 #@! TF.GenerationSoftware,KiCad,Pcbnew,(5.1.7-0-10_14)*
G04 #@! TF.CreationDate,2020-12-22T02:57:25-08:00*
G04 #@! TF.ProjectId,OPL3_breakout,4f504c33-5f62-4726-9561-6b6f75742e6b,1*
G04 #@! TF.SameCoordinates,Original*
G04 #@! TF.FileFunction,Soldermask,Top*
G04 #@! TF.FilePolarity,Negative*
%FSLAX46Y46*%
G04 Gerber Fmt 4.6, Leading zero omitted, Abs format (unit mm)*
G04 Created by KiCad (PCBNEW (5.1.7-0-10_14)) date 2020-12-22 02:57:25*
%MOMM*%
%LPD*%
G01*
G04 APERTURE LIST*
%ADD10O,1.600000X1.600000*%
%ADD11C,1.600000*%
%ADD12O,1.700000X1.700000*%
%ADD13R,1.700000X1.700000*%
%ADD14R,1.970000X0.610000*%
G04 APERTURE END LIST*
D10*
X132800000Y-101220000D03*
D11*
X132800000Y-93600000D03*
D12*
X173240000Y-86400000D03*
D13*
X175780000Y-86400000D03*
D12*
X137680000Y-109200000D03*
D13*
X140220000Y-109200000D03*
D12*
X168160000Y-109200000D03*
X165620000Y-109200000D03*
X163080000Y-109200000D03*
X160540000Y-109200000D03*
X158000000Y-109200000D03*
X155460000Y-109200000D03*
X152920000Y-109200000D03*
X150380000Y-109200000D03*
X147840000Y-109200000D03*
D13*
X145300000Y-109200000D03*
D12*
X168160000Y-86400000D03*
X165620000Y-86400000D03*
X163080000Y-86400000D03*
X160540000Y-86400000D03*
X158000000Y-86400000D03*
X155460000Y-86400000D03*
X152920000Y-86400000D03*
X150380000Y-86400000D03*
X147840000Y-86400000D03*
D13*
X145300000Y-86400000D03*
D14*
X173727000Y-93301000D03*
X173727000Y-94571000D03*
X173727000Y-95841000D03*
X173727000Y-97111000D03*
X173727000Y-98381000D03*
X173727000Y-99651000D03*
X173727000Y-100921000D03*
X173727000Y-102191000D03*
X166797000Y-102191000D03*
X166797000Y-100921000D03*
X166797000Y-99651000D03*
X166797000Y-98381000D03*
X166797000Y-97111000D03*
X166797000Y-95841000D03*
X166797000Y-94571000D03*
X166797000Y-93301000D03*
G36*
G01*
X144512000Y-90398500D02*
X144512000Y-90123500D01*
G75*
G02*
X144649500Y-89986000I137500J0D01*
G01*
X146374500Y-89986000D01*
G75*
G02*
X146512000Y-90123500I0J-137500D01*
G01*
X146512000Y-90398500D01*
G75*
G02*
X146374500Y-90536000I-137500J0D01*
G01*
X144649500Y-90536000D01*
G75*
G02*
X144512000Y-90398500I0J137500D01*
G01*
G37*
G36*
G01*
X144512000Y-91668500D02*
X144512000Y-91393500D01*
G75*
G02*
X144649500Y-91256000I137500J0D01*
G01*
X146374500Y-91256000D01*
G75*
G02*
X146512000Y-91393500I0J-137500D01*
G01*
X146512000Y-91668500D01*
G75*
G02*
X146374500Y-91806000I-137500J0D01*
G01*
X144649500Y-91806000D01*
G75*
G02*
X144512000Y-91668500I0J137500D01*
G01*
G37*
G36*
G01*
X144512000Y-92938500D02*
X144512000Y-92663500D01*
G75*
G02*
X144649500Y-92526000I137500J0D01*
G01*
X146374500Y-92526000D01*
G75*
G02*
X146512000Y-92663500I0J-137500D01*
G01*
X146512000Y-92938500D01*
G75*
G02*
X146374500Y-93076000I-137500J0D01*
G01*
X144649500Y-93076000D01*
G75*
G02*
X144512000Y-92938500I0J137500D01*
G01*
G37*
G36*
G01*
X144512000Y-94208500D02*
X144512000Y-93933500D01*
G75*
G02*
X144649500Y-93796000I137500J0D01*
G01*
X146374500Y-93796000D01*
G75*
G02*
X146512000Y-93933500I0J-137500D01*
G01*
X146512000Y-94208500D01*
G75*
G02*
X146374500Y-94346000I-137500J0D01*
G01*
X144649500Y-94346000D01*
G75*
G02*
X144512000Y-94208500I0J137500D01*
G01*
G37*
G36*
G01*
X144512000Y-95478500D02*
X144512000Y-95203500D01*
G75*
G02*
X144649500Y-95066000I137500J0D01*
G01*
X146374500Y-95066000D01*
G75*
G02*
X146512000Y-95203500I0J-137500D01*
G01*
X146512000Y-95478500D01*
G75*
G02*
X146374500Y-95616000I-137500J0D01*
G01*
X144649500Y-95616000D01*
G75*
G02*
X144512000Y-95478500I0J137500D01*
G01*
G37*
G36*
G01*
X144512000Y-96748500D02*
X144512000Y-96473500D01*
G75*
G02*
X144649500Y-96336000I137500J0D01*
G01*
X146374500Y-96336000D01*
G75*
G02*
X146512000Y-96473500I0J-137500D01*
G01*
X146512000Y-96748500D01*
G75*
G02*
X146374500Y-96886000I-137500J0D01*
G01*
X144649500Y-96886000D01*
G75*
G02*
X144512000Y-96748500I0J137500D01*
G01*
G37*
G36*
G01*
X144512000Y-98018500D02*
X144512000Y-97743500D01*
G75*
G02*
X144649500Y-97606000I137500J0D01*
G01*
X146374500Y-97606000D01*
G75*
G02*
X146512000Y-97743500I0J-137500D01*
G01*
X146512000Y-98018500D01*
G75*
G02*
X146374500Y-98156000I-137500J0D01*
G01*
X144649500Y-98156000D01*
G75*
G02*
X144512000Y-98018500I0J137500D01*
G01*
G37*
G36*
G01*
X144512000Y-99288500D02*
X144512000Y-99013500D01*
G75*
G02*
X144649500Y-98876000I137500J0D01*
G01*
X146374500Y-98876000D01*
G75*
G02*
X146512000Y-99013500I0J-137500D01*
G01*
X146512000Y-99288500D01*
G75*
G02*
X146374500Y-99426000I-137500J0D01*
G01*
X144649500Y-99426000D01*
G75*
G02*
X144512000Y-99288500I0J137500D01*
G01*
G37*
G36*
G01*
X144512000Y-100558500D02*
X144512000Y-100283500D01*
G75*
G02*
X144649500Y-100146000I137500J0D01*
G01*
X146374500Y-100146000D01*
G75*
G02*
X146512000Y-100283500I0J-137500D01*
G01*
X146512000Y-100558500D01*
G75*
G02*
X146374500Y-100696000I-137500J0D01*
G01*
X144649500Y-100696000D01*
G75*
G02*
X144512000Y-100558500I0J137500D01*
G01*
G37*
G36*
G01*
X144512000Y-101828500D02*
X144512000Y-101553500D01*
G75*
G02*
X144649500Y-101416000I137500J0D01*
G01*
X146374500Y-101416000D01*
G75*
G02*
X146512000Y-101553500I0J-137500D01*
G01*
X146512000Y-101828500D01*
G75*
G02*
X146374500Y-101966000I-137500J0D01*
G01*
X144649500Y-101966000D01*
G75*
G02*
X144512000Y-101828500I0J137500D01*
G01*
G37*
G36*
G01*
X144512000Y-103098500D02*
X144512000Y-102823500D01*
G75*
G02*
X144649500Y-102686000I137500J0D01*
G01*
X146374500Y-102686000D01*
G75*
G02*
X146512000Y-102823500I0J-137500D01*
G01*
X146512000Y-103098500D01*
G75*
G02*
X146374500Y-103236000I-137500J0D01*
G01*
X144649500Y-103236000D01*
G75*
G02*
X144512000Y-103098500I0J137500D01*
G01*
G37*
G36*
G01*
X144512000Y-104368500D02*
X144512000Y-104093500D01*
G75*
G02*
X144649500Y-103956000I137500J0D01*
G01*
X146374500Y-103956000D01*
G75*
G02*
X146512000Y-104093500I0J-137500D01*
G01*
X146512000Y-104368500D01*
G75*
G02*
X146374500Y-104506000I-137500J0D01*
G01*
X144649500Y-104506000D01*
G75*
G02*
X144512000Y-104368500I0J137500D01*
G01*
G37*
G36*
G01*
X135212000Y-104368500D02*
X135212000Y-104093500D01*
G75*
G02*
X135349500Y-103956000I137500J0D01*
G01*
X137074500Y-103956000D01*
G75*
G02*
X137212000Y-104093500I0J-137500D01*
G01*
X137212000Y-104368500D01*
G75*
G02*
X137074500Y-104506000I-137500J0D01*
G01*
X135349500Y-104506000D01*
G75*
G02*
X135212000Y-104368500I0J137500D01*
G01*
G37*
G36*
G01*
X135212000Y-103098500D02*
X135212000Y-102823500D01*
G75*
G02*
X135349500Y-102686000I137500J0D01*
G01*
X137074500Y-102686000D01*
G75*
G02*
X137212000Y-102823500I0J-137500D01*
G01*
X137212000Y-103098500D01*
G75*
G02*
X137074500Y-103236000I-137500J0D01*
G01*
X135349500Y-103236000D01*
G75*
G02*
X135212000Y-103098500I0J137500D01*
G01*
G37*
G36*
G01*
X135212000Y-101828500D02*
X135212000Y-101553500D01*
G75*
G02*
X135349500Y-101416000I137500J0D01*
G01*
X137074500Y-101416000D01*
G75*
G02*
X137212000Y-101553500I0J-137500D01*
G01*
X137212000Y-101828500D01*
G75*
G02*
X137074500Y-101966000I-137500J0D01*
G01*
X135349500Y-101966000D01*
G75*
G02*
X135212000Y-101828500I0J137500D01*
G01*
G37*
G36*
G01*
X135212000Y-100558500D02*
X135212000Y-100283500D01*
G75*
G02*
X135349500Y-100146000I137500J0D01*
G01*
X137074500Y-100146000D01*
G75*
G02*
X137212000Y-100283500I0J-137500D01*
G01*
X137212000Y-100558500D01*
G75*
G02*
X137074500Y-100696000I-137500J0D01*
G01*
X135349500Y-100696000D01*
G75*
G02*
X135212000Y-100558500I0J137500D01*
G01*
G37*
G36*
G01*
X135212000Y-99288500D02*
X135212000Y-99013500D01*
G75*
G02*
X135349500Y-98876000I137500J0D01*
G01*
X137074500Y-98876000D01*
G75*
G02*
X137212000Y-99013500I0J-137500D01*
G01*
X137212000Y-99288500D01*
G75*
G02*
X137074500Y-99426000I-137500J0D01*
G01*
X135349500Y-99426000D01*
G75*
G02*
X135212000Y-99288500I0J137500D01*
G01*
G37*
G36*
G01*
X135212000Y-98018500D02*
X135212000Y-97743500D01*
G75*
G02*
X135349500Y-97606000I137500J0D01*
G01*
X137074500Y-97606000D01*
G75*
G02*
X137212000Y-97743500I0J-137500D01*
G01*
X137212000Y-98018500D01*
G75*
G02*
X137074500Y-98156000I-137500J0D01*
G01*
X135349500Y-98156000D01*
G75*
G02*
X135212000Y-98018500I0J137500D01*
G01*
G37*
G36*
G01*
X135212000Y-96748500D02*
X135212000Y-96473500D01*
G75*
G02*
X135349500Y-96336000I137500J0D01*
G01*
X137074500Y-96336000D01*
G75*
G02*
X137212000Y-96473500I0J-137500D01*
G01*
X137212000Y-96748500D01*
G75*
G02*
X137074500Y-96886000I-137500J0D01*
G01*
X135349500Y-96886000D01*
G75*
G02*
X135212000Y-96748500I0J137500D01*
G01*
G37*
G36*
G01*
X135212000Y-95478500D02*
X135212000Y-95203500D01*
G75*
G02*
X135349500Y-95066000I137500J0D01*
G01*
X137074500Y-95066000D01*
G75*
G02*
X137212000Y-95203500I0J-137500D01*
G01*
X137212000Y-95478500D01*
G75*
G02*
X137074500Y-95616000I-137500J0D01*
G01*
X135349500Y-95616000D01*
G75*
G02*
X135212000Y-95478500I0J137500D01*
G01*
G37*
G36*
G01*
X135212000Y-94208500D02*
X135212000Y-93933500D01*
G75*
G02*
X135349500Y-93796000I137500J0D01*
G01*
X137074500Y-93796000D01*
G75*
G02*
X137212000Y-93933500I0J-137500D01*
G01*
X137212000Y-94208500D01*
G75*
G02*
X137074500Y-94346000I-137500J0D01*
G01*
X135349500Y-94346000D01*
G75*
G02*
X135212000Y-94208500I0J137500D01*
G01*
G37*
G36*
G01*
X135212000Y-92938500D02*
X135212000Y-92663500D01*
G75*
G02*
X135349500Y-92526000I137500J0D01*
G01*
X137074500Y-92526000D01*
G75*
G02*
X137212000Y-92663500I0J-137500D01*
G01*
X137212000Y-92938500D01*
G75*
G02*
X137074500Y-93076000I-137500J0D01*
G01*
X135349500Y-93076000D01*
G75*
G02*
X135212000Y-92938500I0J137500D01*
G01*
G37*
G36*
G01*
X135212000Y-91668500D02*
X135212000Y-91393500D01*
G75*
G02*
X135349500Y-91256000I137500J0D01*
G01*
X137074500Y-91256000D01*
G75*
G02*
X137212000Y-91393500I0J-137500D01*
G01*
X137212000Y-91668500D01*
G75*
G02*
X137074500Y-91806000I-137500J0D01*
G01*
X135349500Y-91806000D01*
G75*
G02*
X135212000Y-91668500I0J137500D01*
G01*
G37*
G36*
G01*
X135212000Y-90398500D02*
X135212000Y-90123500D01*
G75*
G02*
X135349500Y-89986000I137500J0D01*
G01*
X137074500Y-89986000D01*
G75*
G02*
X137212000Y-90123500I0J-137500D01*
G01*
X137212000Y-90398500D01*
G75*
G02*
X137074500Y-90536000I-137500J0D01*
G01*
X135349500Y-90536000D01*
G75*
G02*
X135212000Y-90398500I0J137500D01*
G01*
G37*
M02*
